<svg xmlns="http://www.w3.org/2000/svg" xmlns:xlink="http://www.w3.org/1999/xlink" version="1.1" class="marks" width="484" height="427" viewBox="0 0 484 427"><rect width="484" height="427" fill="white"/><g fill="none" stroke-miterlimit="10" transform="translate(6,22)"><g class="mark-group role-frame root" role="graphics-object" aria-roledescription="group mark container"><g transform="translate(0,0)"><path class="background" aria-hidden="true" d="M0,0h400v400h-400Z"/><g><g class="mark-shape role-mark marks" role="graphics-object" aria-roledescription="shape mark container"><path aria-label="Count: 6297; County: Whatcom" role="graphics-symbol" aria-roledescription="geoshape" transform="translate(0,0)" d="M198.623,69.904L203.029,73.461L204.681,86.784L208.72,91.534L203.763,96.57L195.503,97.817L114.915,97.443L112.162,87.285L106.838,91.992L107.022,86.701L99.495,78.102L101.331,69.736L154.199,70.113Z" fill="rgb(199, 221, 239)" stroke="white"/><path aria-label="Count: 391; County: Okanogan" role="graphics-symbol" aria-roledescription="geoshape" transform="translate(0,0)" d="M301.79,69.904L301.056,150.347L294.631,151.414L294.263,150.019L295.916,145.586L290.776,136.869L286.737,135.634L276.641,139.791L276.274,143.121L268.013,140.819L261.771,147.27L258.284,140.161L247.82,142.751L248.922,150.142L239.743,150.101L234.97,142.134L223.589,134.934L224.507,131.226L209.087,116.689L208.72,105.875L206.333,106.248L203.763,96.57L208.72,91.534L204.681,86.784L203.029,73.461L198.623,69.904L237.907,69.987Z" fill="rgb(206, 225, 242)" stroke="white"/><path aria-label="Count: 321; County: Stevens" role="graphics-symbol" aria-roledescription="geoshape" transform="translate(0,0)" d="M373.566,69.862L366.957,82.613L363.469,96.695L370.078,96.611L370.078,136.787L373.382,143.491L368.426,143.491L368.242,162.553L359.982,156.046L353.74,160.467L350.62,158.748L340.707,162.39L333.915,151.332L327.123,155.144L324.736,145.504L332.079,142.381L337.219,127.596L333.915,113.998L339.789,95.696L333.731,79.69L334.465,69.904Z" fill="rgb(207, 225, 242)" stroke="white"/><path aria-label="Count: 88; County: Pend Oreille" role="graphics-symbol" aria-roledescription="geoshape" transform="translate(0,0)" d="M393.759,69.987L393.759,81.861L393.575,143.614L373.382,143.491L370.078,136.787L370.078,96.611L363.469,96.695L366.957,82.613L373.566,69.862Z" fill="rgb(207, 225, 242)" stroke="white"/><path aria-label="Count: 44; County: Ferry" role="graphics-symbol" aria-roledescription="geoshape" transform="translate(0,0)" d="M334.465,69.904L333.731,79.69L339.789,95.696L333.915,113.998L337.219,127.596L332.079,142.381L324.736,145.504L327.123,155.144L326.205,159.239L316.659,155.964L315.374,152.275L307.297,154.734L301.056,150.347L301.79,69.904Z" fill="rgb(207, 225, 242)" stroke="white"/><path aria-label="Count: 1217; County: San Juan" role="graphics-symbol" aria-roledescription="geoshape" transform="translate(0,0)" d="M94.722,114.992L91.969,112.135L95.64,104.547ZM89.032,105.958L86.829,111.886L79.853,104.007L83.341,99.272ZM94.539,101.807L87.196,98.566L91.969,92.492L102.065,96.237Z" fill="rgb(205, 224, 241)" stroke="white"/><path aria-label="Count: 3015; County: Skagit" role="graphics-symbol" aria-roledescription="geoshape" transform="translate(0,0)" d="M106.471,115.613L109.041,106.953L116.017,111.057L114.915,97.443L195.503,97.817L203.763,96.57L206.333,106.248L199.908,105.169L189.261,109.109L187.609,122.931L191.097,124.459L120.422,124.335L111.794,113.046Z" fill="rgb(203, 223, 241)" stroke="white"/><path aria-label="Count: 1601; County: Chelan" role="graphics-symbol" aria-roledescription="geoshape" transform="translate(0,0)" d="M206.333,106.248L208.72,105.875L209.087,116.689L224.507,131.226L223.589,134.934L234.97,142.134L239.743,150.101L248.922,150.142L242.497,163.739L232.767,165.333L230.197,178.226L226.709,183.64L227.627,193.27L237.724,197.123L237.54,203.119L222.304,203.159L209.087,197.123L201.193,191.037L194.952,190.184L185.406,177.778L187.609,169.5L185.039,163.903L181.918,153.423L183.203,143.984L193.85,138.556L195.135,132.462L191.097,124.459L187.609,122.931L189.261,109.109L199.908,105.169Z" fill="rgb(205, 224, 241)" stroke="white"/><path aria-label="Count: 2831; County: Island" role="graphics-symbol" aria-roledescription="geoshape" transform="translate(0,0)" d="M119.321,127.926L119.688,129.535L113.814,136.869L112.712,128.215L119.321,127.885ZM120.422,154.407L108.674,144.723L108.674,135.057L100.78,130.36L105.92,118.963L113.997,124.335L102.432,129.288L109.041,131.226L112.162,145.915L113.079,139.708L120.789,144.477Z" fill="rgb(203, 223, 241)" stroke="white"/><path aria-label="Count: 1558; County: Clallam" role="graphics-symbol" aria-roledescription="geoshape" transform="translate(0,0)" d="M92.52,142.134L91.418,157.274L62.781,157.274L62.781,156.209L6.425,156.209L3.304,149.814L0,134.769L3.855,121.816L0.367,117.805L5.14,117.35L35.796,133.698L55.071,134.893L68.655,138.351L83.157,135.675Z" fill="rgb(205, 224, 241)" stroke="white"/><path aria-label="Count: 31810; County: Snohomish" role="graphics-symbol" aria-roledescription="geoshape" transform="translate(0,0)" d="M191.097,124.459L195.135,132.462L193.85,138.556L183.203,143.984L181.918,153.423L185.039,163.903L119.688,164.025L124.094,150.963L129.417,144.764L121.34,137.528L119.688,129.535L119.321,127.926L119.321,127.885L120.422,124.335Z" fill="rgb(156, 200, 226)" stroke="white"/><path aria-label="Count: 572; County: Douglas" role="graphics-symbol" aria-roledescription="geoshape" transform="translate(0,0)" d="M294.263,150.019L288.022,150.019L282.515,155.677L282.515,162.308L278.109,167.825L277.008,175.537L266.177,183.071L266.177,189.575L248.554,189.9L242.129,199.19L241.946,206.275L237.54,203.119L237.724,197.123L227.627,193.27L226.709,183.64L230.197,178.226L232.767,165.333L242.497,163.739L248.922,150.142L247.82,142.751L258.284,140.161L261.771,147.27L268.013,140.819L276.274,143.121L276.641,139.791L286.737,135.634L290.776,136.869L295.916,145.586Z" fill="rgb(206, 225, 242)" stroke="white"/><path aria-label="Count: 1334; County: Jefferson" role="graphics-symbol" aria-roledescription="geoshape" transform="translate(0,0)" d="M89.399,177.126L62.965,177.045L62.965,183.803L35.062,183.762L19.642,182.583L15.787,166.314L6.425,156.209L62.781,156.209L62.781,157.274L91.418,157.274L92.52,142.134L98.944,140.325L107.939,155.595L95.64,164.025L94.539,170.928Z" fill="rgb(205, 224, 241)" stroke="white"/><path aria-label="Count: 7247; County: Spokane" role="graphics-symbol" aria-roledescription="geoshape" transform="translate(0,0)" d="M373.382,143.491L393.575,143.614L393.575,148.87L393.575,195.258L393.575,203.362L353.557,203.24L353.74,160.467L359.982,156.046L368.242,162.553L368.426,143.491Z" fill="rgb(197, 220, 239)" stroke="white"/><path aria-label="Count: 960; County: Grant" role="graphics-symbol" aria-roledescription="geoshape" transform="translate(0,0)" d="M294.263,150.019L294.631,151.414L294.447,203.159L294.263,229.465L274.621,229.385L274.438,242.474L270.216,246.801L266.911,243.236L259.569,249.683L248.738,250.563L243.598,242.474L245.984,236.377L240.294,217.504L241.946,206.275L242.129,199.19L248.554,189.9L266.177,189.575L266.177,183.071L277.008,175.537L278.109,167.825L282.515,162.308L282.515,155.677L288.022,150.019Z" fill="rgb(206, 224, 242)" stroke="white"/><path aria-label="Count: 79; County: Lincoln" role="graphics-symbol" aria-roledescription="geoshape" transform="translate(0,0)" d="M301.056,150.347L307.297,154.734L315.374,152.275L316.659,155.964L326.205,159.239L327.123,155.144L333.915,151.332L340.707,162.39L350.62,158.748L353.74,160.467L353.557,203.24L346.397,203.24L294.447,203.159L294.631,151.414Z" fill="rgb(207, 225, 242)" stroke="white"/><path aria-label="Count: 8651; County: Kitsap" role="graphics-symbol" aria-roledescription="geoshape" transform="translate(0,0)" d="M113.447,179.53L109.592,172.846L111.794,168.356ZM111.794,192.499L107.939,192.417L107.389,192.417L98.944,192.377L99.128,183.6L87.747,183.6L92.887,176.271L101.514,172.397L105.002,162.472L113.079,153.792L115.833,166.437L108.307,173.784L114.732,184.373Z" fill="rgb(196, 219, 238)" stroke="white"/><path aria-label="Count: 128272; County: King" role="graphics-symbol" aria-roledescription="geoshape" transform="translate(0,0)" d="M114.364,197.974L115.649,184.332L120.789,193.757ZM185.039,163.903L187.609,169.5L185.406,177.778L179.715,179.896L167.049,195.177L173.658,201.58L175.86,211.813L171.455,216.294L151.262,209.792L143.185,212.378L135.108,208.216L132.721,203.483L122.809,203.402L118.403,198.704L123.176,196.596L118.403,179.367L121.891,179.774L122.258,179.815L117.485,172.846L119.688,164.025Z" fill="rgb(10, 74, 144)" stroke="white"/><path aria-label="Count: 1266; County: Mason" role="graphics-symbol" aria-roledescription="geoshape" transform="translate(0,0)" d="M95.089,210.601L92.887,201.904L96.742,200.244ZM89.399,177.126L83.157,188.275L82.79,194.568L87.747,183.6L99.128,183.6L98.944,192.377L98.944,195.785L97.292,197.447L97.292,198.096L92.52,201.702L91.969,207.933L84.993,215.406L78.568,216.495L63.699,216.616L62.965,183.803L62.965,177.045Z" fill="rgb(205, 224, 241)" stroke="white"/><path aria-label="Count: 936; County: Kittitas" role="graphics-symbol" aria-roledescription="geoshape" transform="translate(0,0)" d="M237.54,203.119L241.946,206.275L240.294,217.504L245.984,236.377L243.598,242.474L216.246,242.394L216.246,235.935L209.821,235.895L209.821,229.385L189.812,229.465L186.324,223.469L176.778,216.173L171.455,216.294L175.86,211.813L173.658,201.58L167.049,195.177L179.715,179.896L185.406,177.778L194.952,190.184L201.193,191.037L209.087,197.123L222.304,203.159Z" fill="rgb(206, 224, 242)" stroke="white"/><path aria-label="Count: 972; County: Grays Harbor" role="graphics-symbol" aria-roledescription="geoshape" transform="translate(0,0)" d="M62.965,183.803L63.699,216.616L78.568,216.495L80.587,223.066L80.587,238.303L69.94,238.423L32.676,238.223L30.656,229.908L35.062,230.792L46.81,225.965L30.106,220.447L25.333,200.568L21.294,196.069L19.642,182.583L35.062,183.762Z" fill="rgb(206, 224, 242)" stroke="white"/><path aria-label="Count: 21314; County: Pierce" role="graphics-symbol" aria-roledescription="geoshape" transform="translate(0,0)" d="M118.403,198.704L122.809,203.402L132.721,203.483L135.108,208.216L143.185,212.378L151.262,209.792L171.455,216.294L167.783,228.661L164.846,230.511L167.783,239.025L152.363,238.985L148.692,243.115L129.601,240.55L124.461,235.654L114.915,232.802L107.389,224.556L104.268,215.527L112.896,201.621ZM107.939,192.417L111.794,192.499L109.959,203.604L105.186,201.297ZM98.944,195.785L98.944,192.377L107.389,192.417L97.292,204.576Z" fill="rgb(175, 209, 231)" stroke="white"/><path aria-label="Count: 99; County: Adams" role="graphics-symbol" aria-roledescription="geoshape" transform="translate(0,0)" d="M346.397,203.24L346.397,228.54L343.827,238.905L333.915,242.354L274.438,242.474L274.621,229.385L294.263,229.465L294.447,203.159Z" fill="rgb(207, 225, 242)" stroke="white"/><path aria-label="Count: 525; County: Whitman" role="graphics-symbol" aria-roledescription="geoshape" transform="translate(0,0)" d="M353.557,203.24L393.575,203.362L393.575,213.266L393.575,257.039L393.575,265.577L393.575,265.577L384.029,262.945L382.928,257.119L371.914,245.239L357.228,246.04L352.088,250.843L335.567,255.8L333.547,253.562L333.915,242.354L343.827,238.905L346.397,228.54L346.397,203.24Z" fill="rgb(206, 225, 242)" stroke="white"/><path aria-label="Count: 9344; County: Thurston" role="graphics-symbol" aria-roledescription="geoshape" transform="translate(0,0)" d="M104.268,215.527L107.389,224.556L114.915,232.802L124.461,235.654L129.601,240.55L80.587,240.429L80.587,238.303L80.587,223.066L78.568,216.495L84.993,215.406L91.602,209.994L97.843,209.873Z" fill="rgb(195, 218, 238)" stroke="white"/><path aria-label="Count: 1724; County: Yakima" role="graphics-symbol" aria-roledescription="geoshape" transform="translate(0,0)" d="M243.598,242.474L248.738,250.563L249.105,294.133L200.826,294.053L164.296,293.855L164.296,268.406L170.904,268.326L169.252,257.238L171.822,243.196L167.783,239.025L164.846,230.511L167.783,228.661L171.455,216.294L176.778,216.173L186.324,223.469L189.812,229.465L209.821,229.385L209.821,235.895L216.246,235.935L216.246,242.394Z" fill="rgb(205, 224, 241)" stroke="white"/><path aria-label="Count: 316; County: Pacific" role="graphics-symbol" aria-roledescription="geoshape" transform="translate(0,0)" d="M69.94,238.423L70.491,268.764L51.767,268.645L51.583,275.648L44.057,279.423L34.695,269.879L34.144,252.723L36.347,254.042L36.898,269.003L42.405,264.859L42.955,256.479L39.835,251.883L45.893,243.917L32.859,242.474L32.676,238.223Z" fill="rgb(207, 225, 242)" stroke="white"/><path aria-label="Count: 1136; County: Lewis" role="graphics-symbol" aria-roledescription="geoshape" transform="translate(0,0)" d="M80.587,238.303L80.587,240.429L129.601,240.55L148.692,243.115L152.363,238.985L167.783,239.025L171.822,243.196L169.252,257.238L170.904,268.326L164.296,268.406L127.581,268.645L77.65,268.645L70.491,268.764L69.94,238.423Z" fill="rgb(205, 224, 241)" stroke="white"/><path aria-label="Count: 1042; County: Franklin" role="graphics-symbol" aria-roledescription="geoshape" transform="translate(0,0)" d="M333.547,253.562L332.813,253.203L320.514,252.843L312.62,260.512L312.07,266.693L305.278,275.409L291.143,282.877L279.761,276.96L279.578,258.436L270.216,246.801L274.438,242.474L333.915,242.354Z" fill="rgb(206, 224, 242)" stroke="white"/><path aria-label="Count: 3468; County: Benton" role="graphics-symbol" aria-roledescription="geoshape" transform="translate(0,0)" d="M291.143,282.877L296.466,295.082L294.08,297.139L286.737,302.08L271.317,303.146L263.974,302.593L259.201,307.645L249.105,309.183L249.105,294.133L248.738,250.563L259.569,249.683L266.911,243.236L270.216,246.801L279.578,258.436L279.761,276.96Z" fill="rgb(202, 223, 240)" stroke="white"/><path aria-label="Count: 4; County: Garfield" role="graphics-symbol" aria-roledescription="geoshape" transform="translate(0,0)" d="M384.029,262.945L384.029,266.732L374.3,268.804L374.3,288.112L371.179,288.112L371.179,297.258L364.938,297.179L364.387,272.108L361.267,272.188L357.779,262.267L351.537,262.267L352.088,250.843L357.228,246.04L371.914,245.239L382.928,257.119Z" fill="rgb(207, 225, 242)" stroke="white"/><path aria-label="Count: 22; County: Columbia" role="graphics-symbol" aria-roledescription="geoshape" transform="translate(0,0)" d="M364.938,297.179L345.663,297.06L344.745,297.06L344.929,281.806L338.504,281.806L338.504,275.29L332.263,275.33L332.813,253.203L333.547,253.562L335.567,255.8L352.088,250.843L351.537,262.267L357.779,262.267L361.267,272.188L364.387,272.108Z" fill="rgb(207, 225, 242)" stroke="white"/><path aria-label="Count: 700; County: Walla Walla" role="graphics-symbol" aria-roledescription="geoshape" transform="translate(0,0)" d="M332.813,253.203L332.263,275.33L338.504,275.29L338.504,281.806L344.929,281.806L344.745,297.06L294.08,297.139L296.466,295.082L291.143,282.877L305.278,275.409L312.07,266.693L312.62,260.512L320.514,252.843Z" fill="rgb(206, 225, 242)" stroke="white"/><path aria-label="Count: 99; County: Asotin" role="graphics-symbol" aria-roledescription="geoshape" transform="translate(0,0)" d="M393.575,265.577L393.575,265.617L392.474,271.392L399.449,284.504L396.512,290.292L400,297.495L371.179,297.258L371.179,288.112L374.3,288.112L374.3,268.804L384.029,266.732L384.029,262.945Z" fill="rgb(207, 225, 242)" stroke="white"/><path aria-label="Count: 249; County: Skamania" role="graphics-symbol" aria-roledescription="geoshape" transform="translate(0,0)" d="M164.296,268.406L164.296,293.855L159.89,293.895L160.073,313.125L164.479,317.337L149.793,318.675L143.736,322.843L127.214,330.264L127.398,293.143L127.581,268.645Z" fill="rgb(207, 225, 242)" stroke="white"/><path aria-label="Count: 1343; County: Cowlitz" role="graphics-symbol" aria-roledescription="geoshape" transform="translate(0,0)" d="M127.581,268.645L127.398,293.143L121.707,300.262L114.364,298.088L102.249,303.422L99.862,308.079L93.804,290.926L82.423,283.353L78.017,284.385L78.017,284.147L77.65,268.645Z" fill="rgb(205, 224, 241)" stroke="white"/><path aria-label="Count: 89; County: Wahkiakum" role="graphics-symbol" aria-roledescription="geoshape" transform="translate(0,0)" d="M70.491,268.764L77.65,268.645L78.017,284.147L73.245,285.694L64.8,276.999L51.583,275.648L51.767,268.645Z" fill="rgb(207, 225, 242)" stroke="white"/><path aria-label="Count: 15644; County: Clark" role="graphics-symbol" aria-roledescription="geoshape" transform="translate(0,0)" d="M127.398,293.143L127.214,330.264L107.389,326.025L101.698,323.118L100.78,317.101L99.862,308.079L102.249,303.422L114.364,298.088L121.707,300.262Z" fill="rgb(185, 214, 234)" stroke="white"/><path aria-label="Count: 458; County: Klickitat" role="graphics-symbol" aria-roledescription="geoshape" transform="translate(0,0)" d="M249.105,294.133L249.105,309.183L242.313,310.879L231.299,317.377L217.531,319.501L208.72,316.393L195.503,323.432L188.894,322.253L183.57,325.946L180.266,321.585L168.334,319.344L164.479,317.337L160.073,313.125L159.89,293.895L164.296,293.855L200.826,294.053Z" fill="rgb(206, 225, 242)" stroke="white"/></g><g class="mark-group role-legend" role="graphics-symbol" aria-roledescription="legend" aria-label="Gradient legend titled 'Count' for fill color with values from 4 to 128,272"><g transform="translate(418,0)"><path class="background" aria-hidden="true" d="M0,0h55v216h-55Z" pointer-events="none"/><g><g class="mark-group role-legend-entry"><g transform="translate(0,16)"><path class="background" aria-hidden="true" d="M0,0h0v0h0Z" pointer-events="none"/><g><g class="mark-rect role-legend-gradient" pointer-events="none"><path d="M0,0h16v200h-16Z" fill="url(#gradient_0)" stroke="#ddd" stroke-width="0" opacity="1"/></g><g class="mark-text role-legend-label" pointer-events="none"><text text-anchor="start" transform="translate(18,198)" font-family="sans-serif" font-size="10px" fill="#000" opacity="1">4</text><text text-anchor="start" transform="translate(18,8)" font-family="sans-serif" font-size="10px" fill="#000" opacity="1">128,272</text></g></g><path class="foreground" aria-hidden="true" d="" pointer-events="none" display="none"/></g></g><g class="mark-text role-legend-title" pointer-events="none"><text text-anchor="start" transform="translate(0,9)" font-family="sans-serif" font-size="11px" font-weight="bold" fill="#000" opacity="1">Count</text></g></g><path class="foreground" aria-hidden="true" d="" pointer-events="none" display="none"/></g></g><g class="mark-group role-title"><g transform="translate(200,-17)"><path class="background" aria-hidden="true" d="M0,0h0v0h0Z" pointer-events="none"/><g><g class="mark-text role-title-text" role="graphics-symbol" aria-roledescription="title" aria-label="Title text 'Electric Vehicles by County in Washington'" pointer-events="none"><text text-anchor="middle" transform="translate(0,10)" font-family="sans-serif" font-size="13px" font-weight="bold" fill="#000" opacity="1">Electric Vehicles by County in Washington</text></g></g><path class="foreground" aria-hidden="true" d="" pointer-events="none" display="none"/></g></g></g><path class="foreground" aria-hidden="true" d="" display="none"/></g></g></g><defs><linearGradient id="gradient_0" x1="0" x2="0" y1="1" y2="0"><stop offset="0" stop-color="rgb(207, 225, 242)"/><stop offset="0.0779305828421742" stop-color="rgb(194, 218, 237)"/><stop offset="0.15589235039136806" stop-color="rgb(178, 210, 232)"/><stop offset="0.23385411794056196" stop-color="rgb(160, 202, 227)"/><stop offset="0.3118158854897558" stop-color="rgb(140, 191, 221)"/><stop offset="0.3897776530389497" stop-color="rgb(119, 180, 216)"/><stop offset="0.46773942058814355" stop-color="rgb(99, 168, 210)"/><stop offset="0.5457011881373375" stop-color="rgb(81, 155, 203)"/><stop offset="0.6236629556865313" stop-color="rgb(64, 142, 196)"/><stop offset="0.7016247232357252" stop-color="rgb(49, 129, 189)"/><stop offset="0.779586490784919" stop-color="rgb(35, 115, 180)"/><stop offset="0.857548258334113" stop-color="rgb(24, 100, 170)"/><stop offset="0.9355100258833068" stop-color="rgb(15, 86, 157)"/><stop offset="1" stop-color="rgb(10, 74, 144)"/></linearGradient></defs></svg>